<svg xmlns="http://www.w3.org/2000/svg" viewBox="0 0 2000 2000" width="500" height="500">
  <path transform="translate(964,247)" d="M0 0l4 1 3 27 5 60 8 97 7 95 4 60v5l7-1 1-9 6-103 5-70 2-5 5 1v28l-3 86-3 62v11l9 1 8-38 14-69 13-62 9-43 9-40 14-64 5-22 5-1 2 1-1 10-9 48-19 101-22 109-15 71 1 3 5 1 7-19 16-47 15-43 10-28 13-36 5-5 3 2-1 7-16 51-16 50-23 68v4l9 3 32-64 10-19 15-29 9-17 18-36 10-19 10-18 7-14 12-22 12-23 12-22 11-20 3-3 4 1-3 9-32 66-17 35-53 106-10 19-17 33-15 29-7 13 1 3 6 2 2-5 7-11 11-16 13-18 13-19 10-14 14-20 10-14 14-20 10-13 2-2h5l-1 6-12 19-18 27-10 16-9 13-16 24-9 13-19 28-8 12 5 5h4l14-15 12-13 7-8 12-13 16-17 7-7 7-8 14-15 11-12 12-13 8-8 7-8 8-8 7-8 10-10 7-8 13-13 7-8 17-17 7-8 20-20 7-8 6-5h3v6l-12 13-9 11-7 7-7 8-12 14-7 8-18 20-12 14-9 9-7 8-7 7-7 8-12 13-11 12-12 13-15 16-7 8-12 13-14 15-4 5h-2l-2 4-15 16-1 2h-2l-2 4-6 6 2 4h4l15-13 11-9 14-12 11-9 17-14 10-8 14-11 17-14 14-11 16-13 3-2 5 1-2 6-8 8-11 9-11 10-11 9-12 11-11 9-10 9-11 9-14 12-26 22-11 9-3 3 4 6v2l10-5 22-14 21-13 29-17 28-17 25-15 125-76 20-12 15-8 4-1 2 2-1 4-15 10-22 14-17 11-16 10-44 28-26 16-19 12-26 16-19 12-21 13-48 30-16 9-2 1 1 5 4 1 22-10 34-15 44-19 27-12 24-11 13-5h5v6l-37 18-28 13-36 17-33 15-26 12-7 2 4 10 16-4 53-15 71-21 52-15 101-27 35-9h6l1 5-9 4-35 11-31 10-68 20-98 28-90 25-1 1 2 6 71-11 64-9 44-5h6l2 4-2 2-24 5-70 12-87 14h-3l2 10 106-1h105l70 1 49 1 12-1 3 3-1 5-1 1-20 1-132 2-191 2-1 6 12 1 150 20 18 2 5 2 1 5-1 1h-11l-58-6-98-11-20-3-1 9-1 2 17 4 69 19 65 18 66 19 69 20 37 11 7 2 2 2v6l-10-2-94-24-144-39-57-16-28-8-2-1-1 8 119 51 46 20 5 3 1 5-9-1-53-20-33-13-46-19-26-11-10-5-2 7-1 4 28 17 24 14 28 16 26 16 24 15 47 29 24 15 23 14 24 15 18 11 21 13 5 4 1 6-6-1-24-14-28-16-48-28-27-16-28-17-29-17-26-16-22-13-20-12-22-13-18-11-4-1-1 6 10 9 12 9 14 11 17 14 14 11 11 9 32 26 11 9 16 13 6 7-1 3h-5l-13-10-21-16-19-14-13-10-56-44-18-14-6-4-5 6 1 4 14 15 16 17 15 16 7 7 7 8 9 9 7 8 9 9 7 8 8 8 7 8 7 7 7 8 8 8 7 8 15 16 9 10 7 7 7 8 14 15 7 8 9 10 12 13 10 11 7 10v3l-6-1-13-12-24-24-7-8-27-27-7-8-15-16-11-12-12-12-7-8-21-21-7-8-12-13-9-10-9-9-7-8-12-12-7-8-15-16-14-15-4 1-1 5 7 10 14 19 16 21 8 12 13 18 15 22 16 23 14 21 2 6-4 1-5-4-11-15-16-21-21-28-56-76-2-3-5 1-5 3 8 16 15 29 12 22 14 27 10 19 18 35 10 19 8 16 14 27 17 33 20 40 8 18 1 9-4-1-7-10-13-24-12-22-17-32-12-22-12-23-12-22-15-28-18-35-12-22-12-24-10-19-8-15-1-3-9 1 11 32 21 57 20 56 17 48 14 40 22 64 9 28v4l-5-1-7-14-19-49-15-40-20-54-20-55-14-39-15-43-9-26v-3l-9 2-2 1 2 14 17 87 14 76v8l-5-1-3-8-7-29-19-87-12-57h-5l-1 2 4 57 7 93 10 154 1 23v17l-2 1-4-2-2-12-9-97-10-124-7-102-1-8-10-1-3 39-6 77-6 61-1 9h-6l-1-1v-16l3-43 5-85 3-43h-7l-1 8-12 57-10 50-19 93-18 82-10 45-2 4-3 1-1-1v-13l14-74 13-68 8-41 7-38 14-69 7-32v-6l-9-1-13 35-16 43-13 34-18 47-6 14h-4l-1-4 6-20 19-57 15-42 9-26 10-28v-2l-6-1-10 19-39 78-10 19-9 17-8 16-8 15-8 16-13 25-12 22-10 19-12 22-14 26-6 9-4 2-1-5 8-18 23-46 11-23 17-34 11-23 14-28 10-19 17-33 15-30 10-19 15-30 1-5-5-3-4-1-2 4-13 19-42 57-24 32-10 14-10 13-7 10h-5l-1-4 8-13 10-14 11-16 17-25 12-17 11-16 14-20 13-19 9-13-3-4-4 2-7 7-9 11-7 7-7 8-7 7-7 8-11 12-7 8-8 8-7 8-16 17-9 10-12 13-8 8-7 8-21 21-7 8-13 13-7 8-11 12-14 14-7 8-12 12-7 8-6 5-4-2 1-5 4-5h2v-2h2l2-4 7-7 7-8 10-11 7-8 11-12 18-20 7-8 10-11 7-8 14-15 7-8 11-12 9-10 7-7 7-8 27-30 12-13 18-20 7-7 7-8 9-9-4-8-5 2-11 9-13 10-11 9-14 11-16 13-16 12-15 12-16 12-15 12-14 10-6 1-1-3 7-8 8-7 13-11 11-9 15-13 14-11 9-8 11-9 17-14 14-11 15-12 8-6-1-5-5 1-17 10-21 13-23 14-24 15-112 68-25 15-27 16-24 14-14 8-7 1-1-3 5-5 15-10 22-14 38-24 25-16 19-12 21-13 24-15 26-16 19-12 23-14 28-17 25-15-1-6-1-5-86 36-32 13-37 15-10 4-8 1-1-4 5-4 57-25 45-20 60-26-1-8-22 7-41 12-52 15-54 15-70 19-75 20-16 4h-4l-1-4 5-3 34-11 279-82 12-3v-11l-37 5-81 10-50 6-17 1-2-2 1-4 24-5 50-8 65-9 41-5h4l-1-7h-296l-47-1-2-1 1-5 3-2 78-1 91-2 172-1 1-11-27-3-121-19-30-5-6-2 1-5h13l111 14 58 8h2l2-7-17-4-75-20-44-12-99-28-57-17-33-10-7-4v-3h10l35 9 54 14 144 38 85 24 8 2 1-7 1-4-9-3-36-16-40-18-34-16-36-16-13-7-1-6 3-1 72 30 35 15 41 18 20 9 4 1 1-8-18-10-40-24-59-35-28-17-20-12-26-16-28-17-19-12-40-25-14-10v-5l7 1 22 12 24 14 52 30 24 14 29 17 13 8 64 38 28 17 19 12 16 10 3-1 4-7-11-10-10-8-17-14-13-11-14-11-11-10-11-9-30-26-11-9-12-11v-5h5l17 14 20 15 18 14 13 11 14 11 34 28 16 13 10 8 4-1 1-4-15-16-14-15-16-17-22-24-20-20-7-8-17-17-7-8-22-24-16-17-7-7-7-8-9-10-7-8-12-13-9-10-9-11-10-10-6-7-1-4 3-2 6 4 11 11v2l3 1 7 8 42 42v2h2l7 8 38 38 7 8 7 7 7 8 9 9 7 8 11 11 7 8 13 13 7 8 7 7 7 8 11 11 7 8 15 16h4l6-4-7-11-13-18-16-24-8-11-26-39-21-31-11-17-1-5 5-1 10 12 12 17 10 14 14 19 13 19 10 13 12 17 11 16 13 18 3 4 4-1v-4l-8-17-12-22-19-37-10-19-13-25-12-22-24-47-10-20-10-19-27-54-10-22 2-3 5 2 10 17 12 22 13 24 15 28 9 16 6 12 12 22 12 23 10 19 12 23 10 19 14 26 12 22 13 26v2l10-3-5-12-13-37-15-42-19-53-19-54-13-37-17-49-13-40v-4h5l4 6 16 42 11 29 15 40 17 46 21 58 10 27 9 26 17 47v2l7-1-20-94-17-82v-9l5 1 3 7 11 44 17 72 11 49 2 9 10-1-7-93-7-102-8-139v-11z" fill="#FB6F13"/>
</svg>
